<?xml version="1.0" encoding="UTF-8" standalone="no"?>
<!-- Created with Inkscape (http://www.inkscape.org/) -->

<svg
   width="124.54426mm"
   height="124.8783mm"
   viewBox="0 0 124.54426 124.8783"
   version="1.1"
   id="svg5"
   sodipodi:docname="help-icon.svg"
   inkscape:version="1.1.2 (0a00cf5339, 2022-02-04)"
   xmlns:inkscape="http://www.inkscape.org/namespaces/inkscape"
   xmlns:sodipodi="http://sodipodi.sourceforge.net/DTD/sodipodi-0.dtd"
   xmlns="http://www.w3.org/2000/svg"
   xmlns:svg="http://www.w3.org/2000/svg">
  <sodipodi:namedview
     id="namedview7"
     pagecolor="#ffffff"
     bordercolor="#666666"
     borderopacity="1.0"
     inkscape:pageshadow="2"
     inkscape:pageopacity="0.0"
     inkscape:pagecheckerboard="0"
     inkscape:document-units="mm"
     showgrid="false"
     inkscape:zoom="0.46235269"
     inkscape:cx="266.03068"
     inkscape:cy="471.50152"
     inkscape:window-width="1366"
     inkscape:window-height="695"
     inkscape:window-x="0"
     inkscape:window-y="0"
     inkscape:window-maximized="1"
     inkscape:current-layer="layer1" />
  <defs
     id="defs2" />
  <g
     inkscape:label="Layer 1"
     inkscape:groupmode="layer"
     id="layer1">
    <path
       style="fill:#6f5129;stroke-width:2.11667"
       d="M 46.39925,123.83368 C 28.66379,119.126 13.74405,106.8542 4.9048498,89.703675 0.90111982,81.935294 -0.00344018,76.860602 9.8162798e-6,62.187003 0.00400982,46.886733 0.83753982,42.592072 5.5748098,33.477693 11.94686,21.218018 24.661,8.8849285 36.29793,3.6753345 c 10.94637,-4.900446 41.006247,-4.900446 51.952627,0 11.63694,5.209594 24.351073,17.5426835 30.723133,29.8023585 4.73881,9.11736 5.57057,13.404039 5.57057,28.70931 0,15.307232 -0.82749,19.570752 -5.546,28.575002 -10.9143,20.827535 -28.929153,32.545655 -52.149483,33.921675 -7.754737,0.45955 -16.957027,0.077 -20.449527,-0.85 z m 43.084547,-8.57334 C 115.71075,101.88036 128.17271,69.102553 117.60587,41.292902 111.98854,26.509278 104.15262,17.208748 91.387567,10.174157 81.596087,4.7782455 78.114047,4.0412265 62.27424,4.0119385 46.06915,3.9819785 43.12656,4.6269085 32.64091,10.50676 9.2062398,23.647808 -2.3275402,52.422922 5.1096098,79.193404 10.35272,98.066325 27.22222,114.70031 46.04361,119.55593 c 10.89554,2.81088 33.986007,0.52757 43.440187,-4.29559 z M 47.44388,113.25291 C 22.8614,105.18714 10.49995,88.100475 10.49995,62.187003 c 0,-22.430981 8.5553,-37.163714 27.43263,-47.240624 11.9379,-6.3725695 36.745417,-6.3725695 48.683327,0 18.877343,10.07691 27.432643,24.809643 27.432643,47.240624 0,22.465442 -8.72084,37.454021 -27.370393,47.041737 -9.1244,4.69085 -30.515507,6.88489 -39.234277,4.02417 z m 30.705357,-4.75007 C 89.383137,105.39289 105.48014,89.295904 108.59009,78.062004 114.11265,58.113192 110.13118,41.730312 96.431047,28.030188 76.658967,8.2581025 47.88952,8.2581025 28.11743,28.030188 8.8718298,47.275792 8.4027098,75.782832 27.00872,95.403594 40.37051,109.49413 58.13341,114.04395 78.149237,108.50284 Z M 56.34758,97.747005 c -5.37024,-5.37024 -0.85317,-16.510001 6.69465,-16.510001 2.211367,0 7.698677,6.78904 7.698677,9.525001 0,3.58249 -5.77272,9.524995 -9.252857,9.524995 -1.43025,0 -3.74347,-1.142995 -5.14047,-2.539995 z m 9.449147,-5.01061 c 0.70013,-1.8245 0.23435,-4.35588 -1.03506,-5.625291 -3.056137,-3.05614 -9.040847,1.71621 -7.426807,5.92232 1.54839,4.03504 6.871187,3.8482 8.461867,-0.297029 z M 55.2187,77.709225 c -4.09314,-4.093132 -0.93991,-14.011332 7.29468,-22.944822 9.489777,-10.2952 9.775497,-15.860731 0.81424,-15.860731 -3.96143,0 -6.61133,2.003101 -9.8005,7.408331 -2.40406,4.07459 -5.63766,7.408339 -7.18576,7.408339 -3.51263,0 -9.46711,-5.78976 -9.46711,-9.205219 0,-3.14581 6.06726,-12.136761 10.48619,-15.539285 5.63456,-4.33853 18.077247,-5.39277 25.757637,-2.18238 15.80218,6.605294 18.06757,19.901685 5.58052,32.754104 -4.23811,4.36211 -8.69128,10.550481 -9.89595,13.751941 -1.53718,4.085132 -3.67864,5.820831 -7.181567,5.820831 -2.7452,0 -5.62627,-0.635 -6.40238,-1.411109 z m 9.172207,-5.577252 c 0,-1.51527 4.28625,-7.16498 9.525,-12.554911 10.58199,-10.88737 11.57631,-15.37799 5.19995,-23.48423 -8.20647,-10.432834 -27.794577,-9.286974 -35.229967,2.06088 -3.23385,4.93547 -2.56799,11.333291 1.17952,11.333291 1.08571,0 3.94098,-3.33375 6.34504,-7.408331 4.94152,-8.37524 12.990047,-9.97133 19.692957,-3.90528 5.63426,5.098941 4.85772,8.22088 -4.59584,18.47678 -8.574327,9.30206 -11.166867,18.23683 -5.291657,18.23683 1.74625,0 3.174997,-1.23976 3.174997,-2.755029 z"
       id="path21" />
  </g>
</svg>
