<?xml version="1.0" encoding="UTF-8"?>
<!-- Created with Inkscape (http://www.inkscape.org/) -->
<svg width="512" height="512" version="1.1" viewBox="0 0 512 512" xmlns="http://www.w3.org/2000/svg">
 <path d="m117.97 427.42c-27.068-17.988-37.882-54.993-24.487-83.791 8.9037-19.141 96.167-101.42 118.15-111.4 44.795-20.337 77.254-8.3882 141.49 52.089 62.505 58.845 71.333 78.485 52.253 116.25-18.136 35.9-42.77 42.526-103.75 27.908-18.289-4.3846-40.453-7.972-49.253-7.972s-30.964 3.5874-49.253 7.972c-44.549 10.68-67.927 10.389-85.155-1.0603zm-55.592-153.71c-39.111-14.839-57.02-88.418-29.485-121.14 32.774-38.949 88.864 18.329 78.91 80.581-4.293 26.847-29.988 47.934-49.424 40.559zm358-0.38128c-21.81-4.5682-36.783-35.667-31.934-66.327 8.8277-55.82 52.858-85.997 79.419-54.432 34.178 40.618-1.1512 130.46-47.485 120.76zm-267.6-97.063c-46.097-40.473-27.07-139.73 26.8-139.8 55.678-0.07432 75.665 98.302 28.403 139.8-18.72 16.436-36.482 16.436-55.202 0zm140 0c-47.262-41.497-27.275-139.87 28.403-139.8 53.869 0.07192 72.897 99.325 26.8 139.8-18.72 16.436-36.482 16.436-55.202 0z" fill="#7e7f71" stroke-width="4"/>
</svg>
